<?xml version="1.0" encoding="utf-8"?>
<!-- Generator: Adobe Illustrator 24.3.0, SVG Export Plug-In . SVG Version: 6.00 Build 0)  -->
<svg version="1.1" id="Layer_1" xmlns="http://www.w3.org/2000/svg" xmlns:xlink="http://www.w3.org/1999/xlink" x="0px" y="0px"
	 viewBox="0 0 500 360" style="enable-background:new 0 0 500 360;" xml:space="preserve">
<style type="text/css">
	.st0{fill:#EB9481;}
	.st1{fill:#FFFFFF;}
	.st2{fill:#CC1F23;}
	.st3{fill:#263238;}
	.st4{fill:#37474F;}
	.st5{fill:#DBDBDB;}
	.st6{fill:#A6A6A6;}
	.st7{fill:#FF99BA;}
	.st8{opacity:0.2;enable-background:new    ;}
	.st9{opacity:0.2;}
	.st10{fill:#AD6359;}
	.st11{fill:#455A64;}
</style>
<g id="freepik--character-2--inject-10">
	<path class="st0" d="M277.5,324.7c2.1,0.7,61.6,0.9,63.9-0.5c0.9-0.5,1.4-9.2,1.8-19.7c0.1-2.3,0.1-4.6,0.2-7l4.8-31.8l-39.8-0.3
		l-3.8,31.8l0.1,7c0,0-22.8,10.1-25.2,12S275.4,324,277.5,324.7z"/>
	<path class="st1" d="M277.5,324.7c2.1,0.7,61.6,0.9,63.9-0.5c1-0.7,1.6-13.3,2-26.7l-38.7-0.2l0.1,7c0,0-22.8,10.1-25.2,12
		S275.4,324,277.5,324.7z"/>
	<path class="st2" d="M277.5,324.7c2.1,0.7,61.6,0.9,63.9-0.5c0.9-0.5,1.4-9.2,1.8-19.7l-38.4-0.2c0,0-22.8,10.1-25.2,12
		S275.4,324,277.5,324.7z"/>
	<path class="st3" d="M278.3,322.3c10-0.2,50.3-0.1,60.1,0.4c0.1,0,0.1,0.1,0,0.1c-9.9,0.4-50.2,0-60.1-0.3
		C278.1,322.5,278.1,322.3,278.3,322.3z"/>
	<path class="st3" d="M283.4,314.1c2.3-0.1,4.4,0.8,6,2.5c1.4,1.4,2.2,3.3,2.2,5.3c0,0.1-0.1,0.1-0.1,0c-0.7-4-3.9-7.2-8-7.7
		c0,0-0.1,0-0.1,0S283.4,314.1,283.4,314.1z"/>
	<path class="st3" d="M300.9,305.2c4,0,8.6,1.4,11.1,4.7c0.1,0.1-0.1,0.3-0.2,0.2c-3.5-1.8-7.2-3.3-11-4.4c-0.1,0-0.2-0.2-0.2-0.3
		S300.7,305.2,300.9,305.2z"/>
	<path class="st3" d="M297.8,306.4c4,0,8.6,1.4,11.1,4.7c0.1,0.1-0.1,0.3-0.2,0.2c-3.5-1.8-7.2-3.3-11-4.4c-0.1-0.1-0.2-0.2-0.1-0.3
		C297.6,306.5,297.7,306.4,297.8,306.4z"/>
	<path class="st3" d="M294.7,307.6c4,0,8.6,1.4,11.1,4.7c0.1,0.1-0.1,0.3-0.2,0.2c-3.5-1.9-7.2-3.3-11-4.4c-0.1,0-0.2-0.2-0.2-0.3
		C294.4,307.7,294.5,307.6,294.7,307.6z"/>
	<path class="st3" d="M291.6,308.8c4,0,8.6,1.4,11.1,4.7c0.1,0.1-0.1,0.3-0.2,0.2c-3.5-1.9-7.2-3.3-11-4.4c-0.1,0-0.2-0.2-0.2-0.3
		C291.3,308.9,291.5,308.8,291.6,308.8L291.6,308.8z"/>
	<path class="st3" d="M336,313.3c4.5,0,4.5,7,0,7S331.5,313.2,336,313.3z"/>
	<path class="st3" d="M296.9,300.4c2.1,2.8,5.4,4.6,8.3,6.5c0.2,0.1,0.5,0.1,0.7-0.2c0,0,0-0.1,0.1-0.1c0.1,0,0.1,0,0.1-0.1
		c0,0,0,0,0,0c-0.3-3.7-1.5-7.2-3.6-10.2c-1.2-1.8-3.8-3.4-5.8-1.7S295.6,298.8,296.9,300.4z M296.7,297.1c0.4-4.3,4.3-1,5.2,0.3
		c0.5,0.9,1,1.8,1.5,2.7c0.8,1.9,1.6,3.9,2.2,5.9c-1.3-1.1-2.8-2-4.1-3C299.8,301.9,296.5,299.5,296.7,297.1z"/>
	<path class="st3" d="M320.2,304c-0.3-2.6-3.3-3.2-5.4-2.8c-3.6,0.8-6.9,2.4-9.7,4.9c0,0-0.1,0.1,0,0.1c0,0,0,0,0,0
		c-0.1,0.2-0.1,0.5,0.1,0.7c0,0,0.1,0.1,0.2,0.1c3.4,0.5,7,1.5,10.5,1C317.9,307.7,320.5,306.5,320.2,304z M310.8,306.8
		c-1.7-0.2-3.4-0.5-5-0.7c1.9-1,3.7-2,5.7-2.7c1-0.4,1.9-0.7,2.9-0.9c1.5-0.4,6.7-0.1,4,3.4C316.8,307.6,312.8,307,310.8,306.8z"/>
	<path class="st4" d="M406.6,118.9c0,0-46.2,78.6-47.5,84.2c-1.9,8.5-12,92.3-12,92.3l-48.1-0.9c0,0,8.3-73.9,16.1-98.2
		c5.7-17.5,46.5-75.7,46.5-75.7L406.6,118.9z"/>
	<path class="st3" d="M303.5,287.1c6.9,0,31.4-0.3,40.6,0.5c0,0,0.1,0,0.1,0.1s0,0.1-0.1,0.1l0,0c-3.2,0.5-33.7-0.3-40.6-0.5
		c-0.1,0-0.1,0-0.1-0.1S303.3,287.2,303.5,287.1C303.4,287.1,303.4,287.1,303.5,287.1z"/>
	<path class="st3" d="M398.8,126.2c-3,4.8-6.2,9.4-9.3,14.1s-6.2,9.4-9.2,14.2c-6.1,9.5-12,19-17.8,28.7c-2.8,4.4-5.2,9.1-7.2,14
		c-1.8,4.9-3.2,9.9-4,15.1c-1,5.2-1.6,10.4-2.1,15.6c-0.6,5.5-1.2,11.1-1.9,16.6c-1.3,11.3-2.5,22.7-3.8,34.1
		c-0.2,1.4-0.3,2.8-0.5,4.2c0,0.2,0.3,0.2,0.4,0c1.4-11.3,2.6-22.6,3.9-33.9L349,232c0.6-5.2,1.2-10.5,2-15.7
		c0.8-5.1,1.9-10.2,3.4-15.1c1.6-5.1,3.9-10.1,6.6-14.7c5.6-9.6,11.5-19.1,17.4-28.5s12-19,18.2-28.3c0.8-1.1,1.5-2.3,2.3-3.4
		C399,126.1,398.8,126.1,398.8,126.2z"/>
	<path class="st0" d="M365.8,331.3c2.2,0.1,61.3-15.4,63.1-17.4c0.1-0.1,0.1-0.3,0.1-0.4c0.2-1.9-2.8-9.2-4.9-18.5
		c-0.1-0.6-1.2-3.4-2.8-7.2c-4.3-10.5-11.9-28.4-11.9-28.4l-38.6,9.9l14.2,28.6l1.9,6.7c0,0-19.5,15.6-21.3,18
		S363.6,331.2,365.8,331.3z"/>
	<path class="st1" d="M365.8,331.3c2.2,0.1,61.3-15.4,63.1-17.4c0.1-0.1,0.1-0.3,0.1-0.4c0.2-1.9-2.8-9.2-4.9-18.5
		c-0.1-0.6-1.2-3.4-2.8-7.2l-36.3,10l1.9,6.7c0,0-19.5,15.6-21.3,18S363.6,331.2,365.8,331.3z"/>
	<path class="st2" d="M365.8,331.3c2.2,0.2,61.3-15.4,63.1-17.4c0.7-0.7-0.8-8.7-4.8-18.9l-37.2,9.5c0,0-19.5,15.6-21.3,18
		S363.6,331.2,365.8,331.3z"/>
	<path class="st3" d="M366,328.8c9.6-2.7,48.6-12.9,58.3-14.9c0.1,0,0.1,0,0,0.1c-9.5,2.9-48.5,12.8-58.2,15
		C365.8,329,365.8,328.9,366,328.8z"/>
	<path class="st3" d="M368.8,319.5c2.2-0.6,4.5-0.3,6.4,0.9c1.7,1,3,2.7,3.5,4.6c0,0.1-0.1,0.1-0.1,0
		C376.9,321.2,372.9,319,368.8,319.5c0,0.1,0,0.1-0.1,0.1C368.7,319.6,368.7,319.6,368.8,319.5C368.8,319.5,368.8,319.5,368.8,319.5
		z"/>
	<path class="st3" d="M383.4,306.5c3.9-1.1,8.7-0.9,11.9,1.7c0.1,0.1,0,0.3-0.1,0.2c-3.8-0.9-7.8-1.4-11.7-1.4
		c-0.1,0-0.2-0.1-0.2-0.3C383.3,306.6,383.3,306.6,383.4,306.5z"/>
	<path class="st3" d="M380.8,308.5c3.9-1.1,8.7-0.9,11.9,1.7c0.1,0.1,0,0.3-0.1,0.2c-3.8-0.9-7.8-1.3-11.7-1.4
		c-0.1,0-0.3-0.1-0.3-0.2C380.5,308.6,380.6,308.5,380.8,308.5L380.8,308.5z"/>
	<path class="st3" d="M378.1,310.4c3.9-1.1,8.7-0.9,11.9,1.7c0.1,0.1,0,0.3-0.1,0.2c-3.8-0.9-7.8-1.4-11.7-1.4
		c-0.1,0-0.2-0.1-0.2-0.3C377.9,310.5,378,310.4,378.1,310.4z"/>
	<path class="st3" d="M375.4,312.3c3.9-1,8.7-0.9,11.9,1.7c0.1,0.1,0,0.3-0.1,0.2c-3.8-0.9-7.8-1.4-11.7-1.4c-0.1,0-0.3-0.1-0.3-0.2
		S375.2,312.3,375.4,312.3z"/>
	<path class="st3" d="M419.4,305.4c4.3-1.1,6.1,5.6,1.7,6.7S415.1,306.5,419.4,305.4z"/>
	<path class="st3" d="M378.4,302.9c2.8,2.1,6.4,3,9.6,4.2c0.3,0.1,0.5-0.1,0.6-0.3c0,0,0-0.1,0-0.1c0.1,0,0.1,0,0.1-0.1c0,0,0,0,0,0
		c-1.2-3.5-3.3-6.6-6.1-9c-1.6-1.4-4.5-2.3-6.1-0.2S376.7,301.6,378.4,302.9z M377.4,299.7c-0.7-4.3,3.9-2.1,5.1-1
		c0.7,0.7,1.4,1.4,2.1,2.2c1.3,1.7,2.5,3.4,3.7,5.2c-1.6-0.7-3.2-1.2-4.8-1.9C381.6,303.5,377.7,302.1,377.4,299.7L377.4,299.7z"/>
	<path class="st3" d="M401.8,300.4c-1-2.5-4-2.2-5.9-1.3c-3.3,1.6-6.1,4.1-8.1,7.2c0,0,0,0.1,0,0.1c0,0,0,0,0,0
		c-0.1,0.3,0.1,0.5,0.3,0.6c0,0,0.1,0,0.1,0c3.5-0.4,7.2-0.3,10.4-1.7C400.6,304.6,402.7,302.7,401.8,300.4z M393.4,305.5
		c-1.7,0.2-3.4,0.3-5,0.6c1.5-1.4,3.2-2.8,4.8-4.1c0.8-0.6,1.7-1.2,2.6-1.6c1.4-0.7,6.5-1.8,4.7,2.2
		C399.5,304.8,395.4,305.2,393.4,305.5z"/>
	<path class="st4" d="M382.4,296l43.2-11.3c0,0-41.4-81.4-41-87.1c0.3-5,30.3-48.7,32-56.9c2.7-13.4-3.8-25.4-10.1-32.8l-44.7,12.6
		c0,0,3.6,7.7,10.1,12.6c0,0-28.1,46.9-28.8,62.3S382.4,296,382.4,296z"/>
	<path class="st3" d="M381.5,288c6.3-1.8,4.4-1.4,10.7-3.1c3.1-0.8,23.3-6.4,26.3-6.7c0.1,0,0.1,0.1,0,0.1
		c-2.8,1.2-23.1,6.4-26.2,7.2c-6.3,1.6-4.5,1.1-10.9,2.6C381.5,288.2,381.4,288,381.5,288z"/>
	<path class="st3" d="M364.9,131.4c4.3,1.6,8.4,3.5,12.4,5.8c0.1,0,0.1,0.1,0.1,0.2s-0.1,0.1-0.2,0.1l0,0c-4.2-1.8-8.4-3.6-12.5-5.6
		c-0.1-0.1-0.2-0.2-0.1-0.4C364.7,131.4,364.8,131.4,364.9,131.4z"/>
	<path class="st3" d="M370.2,130.3c0.3,0.8,0.6,1.6,0.8,2.4c0.2,0.6,0.3,1.3,0.3,2c0,0.1-0.1,0.1-0.2,0.1c0,0,0,0-0.1-0.1
		c-0.4-0.6-0.7-1.2-0.8-1.9c-0.3-0.8-0.6-1.5-0.8-2.2C369.2,130.1,370,129.9,370.2,130.3z"/>
	<path class="st3" d="M370.2,126.3c-0.2-0.7-0.4-1.4-0.5-2.1s-0.5-1.4-0.6-2.1c0-0.1-0.2-0.1-0.2,0c0.2,0.7,0.2,1.4,0.4,2.1
		s0.3,1.4,0.4,2.1c0.3,1.3,0.6,2.6,1,3.9c-0.7-0.1-1.4-0.3-2-0.6c-0.6-0.5-1-1.2-1.2-1.9c-0.3-0.8-0.5-1.6-0.8-2.3
		c-0.4-0.8-0.6-1.7-0.9-2.6c0-0.1-0.2-0.1-0.2,0c0.3,1.9,0.9,3.7,1.6,5.5c0.3,0.7,0.5,1.4,1.2,1.8c0.8,0.3,1.6,0.5,2.4,0.5
		c0.1,0,0.2,0,0.2-0.1C370.8,129.1,370.5,127.6,370.2,126.3z"/>
	<path class="st3" d="M370.9,134.8c-1.7,3.1-3.6,6-5.5,9s-3.5,5.9-5.1,8.9c-3.3,6.1-6.4,12.3-9.3,18.6c-1.4,3.1-2.7,6.3-4,9.5
		c-1.3,3.2-2.4,6.5-3.2,9.8c-0.8,3.3-0.9,6.8-0.4,10.2c0.6,3.5,1.5,6.9,2.7,10.2c2.3,7.7,5.1,15.1,8.4,22.4c0.1,0.2,0.5,0.1,0.4-0.2
		c-2.4-6.7-4.8-13.3-6.9-20c-2-6.5-4.5-13.3-3.4-20.3c0.6-3.3,1.6-6.6,2.8-9.8c1.2-3.2,2.5-6.4,3.9-9.6c2.7-6.2,5.8-12.3,8.9-18.4
		c1.7-3.4,3.6-6.7,5.3-10.1s3.5-6.9,5.5-10.2C371.1,134.8,371,134.7,370.9,134.8z"/>
	<path class="st3" d="M403.5,128.2c-0.8-0.1-2,0.1-5.5-0.1c-1-0.1-1.9-0.2-2.9-0.5c-1-0.2-1.9-0.5-2.7-1.1c-1.3-1.2-2.3-2.6-3-4.2
		c-0.9-1.6-1.7-3.4-2.1-5.2c0-0.1-0.2-0.1-0.2,0.1c0.2,1,0.3,2,0.6,3.1c0.3,1,0.6,1.9,1,2.8c0.6,1.8,1.7,3.4,3.1,4.6
		c1.6,1.2,3.8,1.4,5.7,1.6c1.1,0.1,5.5,0,6-0.7C403.6,128.5,403.6,128.2,403.5,128.2z"/>
	<path class="st3" d="M414.9,275.4c-5.5-11.1-10.8-22.2-16-33.5c-5.2-11.2-10.3-22.5-15.2-33.9c-1.4-2.7-2.4-5.5-3.2-8.4
		c-0.7-3.2,0.3-6,1.6-8.9c2.5-5.2,5.3-10.3,8.4-15.1c3-4.9,6.2-9.7,9.4-14.6c3.3-4.7,6.3-9.6,9-14.7c2.5-4.9,3.8-10.1,3.1-15.6
		s-3.1-10.6-5.6-15.4c-0.7-1.3-1.4-2.5-2-3.8c0-0.1-0.2,0-0.1,0.1c2.8,5.1,5.5,10.4,6.9,16c0.7,2.8,0.9,5.7,0.6,8.6
		c-0.4,2.9-1.2,5.7-2.4,8.4c-2.4,5.2-5.6,9.9-8.7,14.6s-6.4,9.6-9.5,14.5c-3.1,4.9-6,10-8.6,15.2c-1.1,2.3-2.4,4.8-2.7,7.4
		c-0.3,2.9,0.7,5.6,1.8,8.2c4.8,11.3,9.9,22.4,15,33.5s10.5,22.3,15.9,33.3l2,4.2C414.7,275.7,414.9,275.5,414.9,275.4z"/>
	<path class="st3" d="M360.8,24.6c1-4.6,6.1-14.9,16.1-12.9c14.3,2.9,16.4,30.5,23.5,39.1c12.9,15.6,13.3,31,2.8,33.5
		c-11.9,2.8-23.4-10-23-37.5c0.3-17.2-4.6-24.9-8-24.3s-5.3,4.9-5.3,4.9L360.8,24.6z"/>
	<path class="st3" d="M361.2,22.9c0.7-2.1,1.7-4.2,2.9-6.1c1.2-1.9,2.8-3.6,4.7-4.9c2-1.3,4.3-2,6.6-1.9c2.3,0.1,4.6,0.7,6.6,1.9
		c2,1.2,3.7,2.8,5,4.7c1.3,1.9,2.4,3.9,3.2,6c1.6,4.2,2.7,8.6,3.3,13c-1.1-4.3-2.5-8.5-4.2-12.6c-0.9-2-2-3.9-3.3-5.7
		c-1.2-1.7-2.8-3.2-4.7-4.3c-1.9-1.1-3.9-1.7-6.1-1.8c-2.1-0.1-4.2,0.4-6,1.6c-1.8,1.2-3.4,2.7-4.7,4.4c-0.7,0.9-1.3,1.8-1.8,2.8
		C362.2,20.9,361.7,21.9,361.2,22.9z"/>
	<path class="st3" d="M380.1,37.3c0.1,2.7,0,5.5-0.1,8.2s-0.2,5.4-0.2,8.2s0.1,5.4,0.4,8.1c0.2,2.7,0.7,5.3,1.5,7.9
		c0.7,2.6,1.9,5,3.5,7.1c1.7,2.1,3.7,3.8,6,5.2c2.3,1.4,4.9,2.2,7.5,2.4c1.3,0.1,2.7,0,4-0.2c0.7-0.1,1.3-0.3,2-0.5
		c0.7-0.2,1.3-0.5,1.8-0.9c-1.1,0.8-2.4,1.4-3.7,1.7c-1.3,0.3-2.7,0.5-4.1,0.5c-1.4,0-2.8-0.2-4.1-0.6c-1.3-0.4-2.6-0.9-3.9-1.6
		c-1.2-0.7-2.4-1.5-3.5-2.4l-0.8-0.7l-0.8-0.7c-0.5-0.5-1-1-1.4-1.6c-1.7-2.2-3-4.8-3.8-7.5c-1.4-5.4-1.9-10.9-1.6-16.4
		c0.1-2.7,0.3-5.5,0.5-8.2S380,40,380.1,37.3z"/>
	<path class="st2" d="M359.9,24.7c-0.2-1.3,0.6-3,1.4-3.3s7.2,1.7,7.9,3.3s-1.9,3.2-1.9,3.2L359.9,24.7z"/>
	<path class="st0" d="M367.6,69.7c-3.9,5.6-32.4,28.8-47.9,29.7c-7,0.4-34.4-2.6-40.5-5.1c-7.5-3.1,7.3-21.6,12-20.8
		c5.9,1,26.6,3.2,30.8,3.3c6.6,0.2,27-11,40.7-13.9C369.8,61.4,370.6,65.4,367.6,69.7z"/>
	<path class="st5" d="M367.3,70.8c-4.3,7.6-19.7,20.6-19.7,20.6l-2.6-4.8l-8.6-15.9c0,0,14.5-5.8,24.1-8.6c1.1-0.3,2.3-0.6,3.5-0.8
		C370.2,60.4,371,64.3,367.3,70.8z"/>
	<path class="st5" d="M367.3,70.8c-4.3,7.6-19.7,20.6-19.7,20.6l-2.6-4.8l-1.8-3.3l-6.9-12.6c0,0,14.5-5.8,24.2-8.6
		c1.1-0.3,2.3-0.6,3.5-0.8c0.1,0,0.2,0,0.4,0C370.2,60.6,370.9,64.4,367.3,70.8z"/>
	<path class="st1" d="M349.2,66.7c0.3,1.4,0.3,2.8,0,4.2C348.8,69.5,348.8,68.1,349.2,66.7z M345.1,74.9c-0.7,0-1.4,0.1-2.1,0.2
		c0.7,0.2,1.4,0.3,2.1,0.2c0.7,0,1.4-0.1,2.1-0.2C346.5,75,345.8,74.9,345.1,74.9L345.1,74.9z M366.3,63.2c-0.7,0-1.4,0.1-2.1,0.2
		c0.7,0.2,1.4,0.3,2.1,0.2c0.7,0,1.4-0.1,2.1-0.2C367.7,63.3,367,63.2,366.3,63.2z M358.1,73.6c0.5,0.5,1.1,0.9,1.7,1.3
		c-0.4-0.6-0.8-1.2-1.3-1.7c-0.5-0.5-1.1-0.9-1.7-1.3C357.2,72.6,357.6,73.1,358.1,73.6L358.1,73.6z M350,83.6
		c0.5,0.5,1.1,0.9,1.7,1.3c-0.4-0.6-0.8-1.2-1.3-1.7c-0.5-0.5-1.1-0.9-1.7-1.3C349.1,82.6,349.5,83.1,350,83.6L350,83.6z"/>
	<path class="st3" d="M350.3,87.8c-1.5-2.9-7.9-14.7-9.4-17.2c-0.1-0.2-0.2-0.1-0.2,0c2.8,5.9,6,11.6,9.4,17.2
		C350.2,87.9,350.3,87.9,350.3,87.8z"/>
	<path class="st6" d="M367.3,70.8c-4.3,7.6-19.7,20.6-19.7,20.6l-2.6-4.8l-1.8-3.3c8.3-8.2,18.3-18.3,21.1-22
		C370.2,60.6,370.9,64.4,367.3,70.8z"/>
	<path class="st5" d="M353.1,105.6l2.3,25c3.1-0.1,6.1-0.4,9.1-0.9c8-1.2,15.9-2.8,23.7-4.9c7.7-2,16.8-4.8,27.1-8.4
		c0,0-23.4-42.3-39.6-53.9c-0.4-0.3-0.7-0.5-1.1-0.8c-0.1-0.1-0.1-0.1-0.2-0.1c-7.4-4.6-14-1-17.7,4.2c-0.9,1.3-9.9,21.8-9.5,28.6
		C347.7,100.4,353.1,105.6,353.1,105.6z"/>
	<path class="st1" d="M366.1,78.9c0.2,0.7,0.3,1.4,0.2,2.1c0,0.7-0.1,1.4-0.2,2.1c-0.2-0.7-0.3-1.4-0.2-2.1
		C365.8,80.3,365.9,79.6,366.1,78.9z M371.6,105.1c0,0.7,0.1,1.4,0.2,2.1c0.2-0.7,0.3-1.4,0.2-2.1c0-0.7-0.1-1.4-0.2-2.1
		C371.6,103.7,371.5,104.4,371.6,105.1L371.6,105.1z M389,90.2c0,0.7,0.1,1.4,0.2,2.1c0.3-1.4,0.3-2.8,0-4.2
		C389.1,88.8,389,89.5,389,90.2z M357,101.9c0,0.7,0.1,1.4,0.2,2.1c0.3-1.4,0.3-2.8,0-4.2C357.1,100.5,357,101.2,357,101.9z
		 M377.2,83.5c-0.7,0-1.4,0.1-2.1,0.2c1.4,0.3,2.8,0.3,4.2,0C378.6,83.5,377.9,83.4,377.2,83.5L377.2,83.5z M392,102.1
		c-0.7,0-1.4,0.1-2.1,0.2c1.4,0.3,2.8,0.3,4.2,0C393.5,102.2,392.8,102.1,392,102.1L392,102.1z M369.4,116.9c-0.7,0-1.4,0.1-2.1,0.2
		c0.7,0.2,1.4,0.3,2.1,0.2c0.7,0,1.4-0.1,2.1-0.2C370.8,117,370.1,116.9,369.4,116.9L369.4,116.9z M395.8,114
		c-0.7,0-1.4,0.1-2.1,0.2c1.4,0.3,2.8,0.3,4.2,0C397.2,114.1,396.5,114,395.8,114z M366.3,63.2c-0.7,0-1.4,0.1-2.1,0.2
		c0.7,0.2,1.4,0.3,2.1,0.2c0.7,0,1.4-0.1,2.1-0.2C367.7,63.2,367,63.2,366.3,63.2L366.3,63.2z M377,67.8c0.5,0.5,1.1,0.9,1.7,1.3
		c-0.4-0.6-0.8-1.2-1.3-1.7c-0.5-0.5-1.1-0.9-1.7-1.3C376.1,66.7,376.5,67.3,377,67.8L377,67.8z M398.8,91.2
		c0.5,0.5,1.1,0.9,1.7,1.3c-0.4-0.6-0.8-1.2-1.3-1.7c-0.5-0.5-1.1-0.9-1.7-1.3C397.9,90.1,398.3,90.7,398.8,91.2L398.8,91.2z
		 M363.9,93.7c0.5,0.5,1.1,0.9,1.7,1.3c-0.7-1.2-1.8-2.3-3-3C362.9,92.6,363.4,93.2,363.9,93.7L363.9,93.7z M384,110.6
		c0.5,0.5,1.1,0.9,1.7,1.3c-0.7-1.2-1.8-2.3-3-3C383,109.5,383.5,110.1,384,110.6z M358.2,73.6c0.5,0.5,1.1,0.9,1.7,1.3
		c-0.4-0.6-0.8-1.2-1.3-1.7c-0.5-0.5-1.1-0.9-1.7-1.3C357.2,72.6,357.6,73.1,358.2,73.6L358.2,73.6z M356.7,86.8
		c0.5-0.5,0.9-1.1,1.3-1.7c-0.6,0.4-1.2,0.8-1.7,1.3c-0.5,0.5-0.9,1.1-1.3,1.7C355.7,87.7,356.2,87.3,356.7,86.8L356.7,86.8z
		 M404.2,104.6c0.5-0.5,0.9-1.1,1.3-1.7c-1.2,0.7-2.3,1.8-3,3C403.1,105.6,403.6,105.1,404.2,104.6L404.2,104.6z M359.3,111.8
		c0.5-0.5,0.9-1.1,1.3-1.7c-1.2,0.7-2.3,1.8-3,3C358.2,112.7,358.8,112.3,359.3,111.8L359.3,111.8z M386.1,77.3
		c0.5-0.5,0.9-1.1,1.3-1.7c-0.6,0.4-1.2,0.8-1.7,1.3c-0.5,0.5-0.9,1.1-1.3,1.7C385,78.2,385.6,77.8,386.1,77.3L386.1,77.3z
		 M379.5,122.2c0.5-0.5,0.9-1.1,1.3-1.7c-0.6,0.4-1.2,0.8-1.7,1.3c-0.5,0.5-0.9,1.1-1.3,1.7C378.4,123.1,378.9,122.7,379.5,122.2
		L379.5,122.2z M379.5,95.2c0.5-0.5,1-1,1.3-1.7c-1.2,0.7-2.3,1.8-3,3C378.4,96.2,379,95.7,379.5,95.2L379.5,95.2z"/>
	<path class="st0" d="M369.8,61.1c-0.1,1-4.1,7.5-8.5,7.7c-1.4,0.1-2-7.6-2-7.6l-0.2-0.6l-2.5-7.8l8.8-6.8l1.3-0.9
		c0,0,0.5,2.2,1.2,4.9l0.1,0.4c0,0.1,0.1,0.3,0.1,0.4l0.3,1.2c0.1,0.3,0.1,0.6,0.2,1l0.2,1C369.3,56.4,369.7,58.7,369.8,61.1z"/>
	<path class="st3" d="M368,50c-1.2,4.7-4.5,8.6-8.8,10.6l-2.5-7.8l8.8-6.8l1.3-0.9C366.8,45.1,367.3,47.2,368,50z"/>
	<path class="st0" d="M345.7,41c-0.1,14.4,8.5,16.1,11.6,16.1c2.8,0,12.4-0.3,14-14.6s-5.1-18.9-11.5-19.2S345.8,26.6,345.7,41z"/>
	<path class="st3" d="M370.5,43.4c-2.4,0.2-3-4.7-3-4.7s-4.8,0.1-6.5-6.7c0.2,2.1,1,4,2.3,5.6c0,0-8.5-0.7-12.2-7.7
		c0,0,1.5,3.6,2.9,4.8c-2.2-0.6-4.1-1.9-5.4-3.7c0,0-1.4,4.1-2.5,5.3c0,0-1.6-7.2,1.4-11c6.3-8,16.8-1,16.8-1s5.8,0.9,7.9,5.2
		C375.2,36.3,370.5,43.4,370.5,43.4z"/>
	<path class="st0" d="M369,43.5c0,0,2.8-4.7,4.9-3.8s0.3,7.6-2,8.7c-1.2,0.7-2.7,0.2-3.3-0.9c0,0,0,0,0-0.1L369,43.5z"/>
	<path class="st3" d="M373.3,41.7c-1.5,0.9-2.5,2.4-2.9,4.1c0.3-0.7,1.1-1,1.8-0.7c0.1,0,0.2,0.1,0.2,0.1c0,0,0,0.1,0,0.1
		c-0.6-0.1-1.3,0.1-1.6,0.7c-0.3,0.4-0.5,0.9-0.7,1.4c-0.1,0.1-0.3,0.1-0.3-0.1l0,0C369.6,45.1,371,42,373.3,41.7L373.3,41.7z"/>
	<path class="st3" d="M347.5,38.1c0.3-0.1,0.7-0.1,1-0.2c0.4,0,0.7-0.2,0.9-0.4c0.1-0.2,0.1-0.4,0-0.6c-0.3-0.3-0.8-0.4-1.3-0.2
		c-0.5,0.1-0.9,0.3-1.1,0.7c-0.2,0.3-0.1,0.6,0.2,0.8C347.3,38.1,347.4,38.1,347.5,38.1z"/>
	<path class="st3" d="M356.9,39.2c-0.3,0-0.7-0.1-1-0.2c-0.4,0-0.7-0.1-1-0.4c-0.1-0.2-0.1-0.4,0-0.6c0.3-0.3,0.8-0.5,1.2-0.3
		c0.5,0.1,0.9,0.3,1.2,0.6c0.2,0.2,0.1,0.6-0.1,0.8C357.1,39.2,357,39.2,356.9,39.2z"/>
	<path class="st3" d="M355,42.1C355,42.1,355.1,42.1,355,42.1c0.1,1.1,0.2,2.2,1.1,2.5 M356.1,44.7c-1.1-0.1-1.3-1.6-1.1-2.6
		L356.1,44.7z"/>
	<path class="st3" d="M355.8,41.1c1.6-0.1,1.8,3,0.3,3.2S354.5,41.2,355.8,41.1z"/>
	<path class="st3" d="M356.5,41.2c0.3,0.2,0.6,0.5,0.9,0.5s0.7-0.3,0.9-0.7h0c0,0.6-0.2,1.2-0.8,1.4s-1-0.4-1.2-1
		C356.3,41.4,356.4,41.2,356.5,41.2z"/>
	<path class="st3" d="M349.5,42.2C349.5,42.2,349.4,42.2,349.5,42.2c0,1.1-0.1,2.2-0.9,2.6c0,0,0,0.1,0,0
		C349.7,44.6,349.7,43.1,349.5,42.2z"/>
	<path class="st3" d="M348.5,41.2c-1.6,0-1.5,3.2,0,3.2S349.9,41.2,348.5,41.2z"/>
	<path class="st3" d="M347.9,41.4c-0.2,0.2-0.5,0.5-0.8,0.5s-0.6-0.3-0.9-0.6h0c0,0.6,0.2,1.2,0.8,1.3s0.9-0.4,1-1.1
		C348.1,41.6,348,41.4,347.9,41.4z"/>
	<path class="st3" d="M356.2,50.2c-0.2,0.3-0.4,0.6-0.8,0.7c-0.4,0-0.7,0-1.1-0.1 M354.4,50.8c0.3,0.4,0.8,0.5,1.3,0.4
		c0.4-0.1,0.7-0.5,0.7-0.9c0-0.1-0.1-0.1-0.1,0L354.4,50.8z"/>
	<path class="st3" d="M351.1,46.6c0,0-0.1,1.4-0.1,2.2c1.3,0,2.7,0.1,4,0.4c0.3,0.1,0.3-0.2-0.1-0.4c-1-0.6-2.2-0.8-3.4-0.7
		c0-0.2,0.3-2.3,0.1-2.3c-0.5,0.1-1.1,0.2-1.6,0.4c0.2-3.1,0.9-6.1,1-9.2c0,0,0-0.1-0.1-0.1c0,0-0.1,0-0.1,0.1
		c-0.8,3.2-1.4,6.5-1.6,9.9C349.5,47.3,350.9,46.7,351.1,46.6z"/>
	<path class="st3" d="M352.6,48.7c0.5,0.7,1.2,1.1,2,1.4c1.2,0.1,1.3-1-0.1-1.5C353.9,48.5,353.3,48.5,352.6,48.7z"/>
	<path class="st7" d="M354.6,50.1c-0.5-0.1-0.9-0.3-1.2-0.6c0.2-0.4,0.8-0.8,2.1-0.2C355.7,49.8,355.4,50.2,354.6,50.1z"/>
	<path class="st0" d="M367.7,59.4c1.8,0,4.7,0.4,8.7,3.5c0,0-8.3,6.7-16.1,6.7c-2.8,0-3.6-3.9-3.6-3.9S360.5,59.5,367.7,59.4z"/>
	<path class="st2" d="M499.5,347.3h-32.7c-23.7,0-38.3-16.4-40.9-46.2c-1.3-14.7-2.1-32.5-2.9-51.3c-2.6-57.8-6.1-137-28.6-137
		h-25.9v-6h25.9c28.2,0,31.5,72.6,34.6,142.8c0.8,18.8,1.6,36.5,2.9,51c1.6,18.6,9,40.7,34.9,40.7h32.7L499.5,347.3z"/>
	<polygon class="st8" points="387.6,106.8 386.3,112.8 368.6,112.8 368.6,106.8 	"/>
	<rect x="309.3" y="73.9" class="st2" width="10.5" height="73.1"/>
	<rect x="269.6" y="79.3" class="st2" width="39.8" height="61.5"/>
	<polygon class="st8" points="309.3,79.3 309.3,140.9 299.5,140.9 295,79.3 	"/>
	<path class="st5" d="M239.1,90.4h30.5l0,0v9.2l0,0h-30.5c-2.2,0-3.9-1.8-3.9-3.9l0,0v-1.3C235.1,92.1,236.9,90.4,239.1,90.4
		C239.1,90.4,239.1,90.4,239.1,90.4z"/>
	<rect x="258.9" y="90.4" class="st6" width="10.7" height="9.2"/>
	<path class="st5" d="M239.1,120.6h30.5l0,0v9.2l0,0h-30.5c-2.2,0-3.9-1.8-3.9-3.9l0,0v-1.3C235.1,122.4,236.9,120.6,239.1,120.6
		C239.1,120.6,239.1,120.6,239.1,120.6z"/>
	<rect x="258.9" y="120.6" class="st6" width="10.7" height="9.2"/>
	<rect x="350.5" y="104.2" class="st2" width="31.1" height="12.3"/>
	<rect x="350.5" y="104.2" class="st2" width="31.1" height="12.3"/>
	<polygon class="st8" points="361.5,104.2 360.4,116.5 350.5,116.5 350.5,104.2 	"/>
	<path class="st2" d="M319.8,81.6h24.6c3.4,0,6.1,2.8,6.1,6.1v44.6c0,3.4-2.8,6.2-6.1,6.2l0,0h-24.6l0,0V81.6L319.8,81.6z"/>
	<polygon class="st8" points="332.9,81.6 328.5,138.5 319.8,138.5 319.8,81.6 	"/>
	<g class="st9">
		<rect x="328.6" y="93.1" width="2" height="33.9"/>
		<rect x="334.2" y="93.1" width="2" height="33.9"/>
		<rect x="339.8" y="93.1" width="2" height="33.9"/>
	</g>
	<path class="st0" d="M378.7,69.9c3.4,9.6-1.5,45-7.3,52.5c-8.7,11.1-25.8,21.3-32.3,24.5c-2.9,1.4-15.7-19.1-12.9-21
		c6-4.1,25.1-13.9,26.7-15.9s10.3-20.7,13.8-31.2C371.5,64.6,377,65,378.7,69.9z"/>
	<path class="st0" d="M339.1,146.9c-9.1,5.2-27.1,4.4-29.6,3.7l-3.2-1c-3.8-1.1-4.8-3.2-4.8-3.2s-4.7,0.1-5.3-2.8
		c-0.6-3.2,6.2-2.7,10.1-4.6c9-4.5,20.4-13.5,22.9-15.1L339.1,146.9z"/>
	<path class="st3" d="M319.1,140.8c-2.6,1.4-5.3,2.5-8.1,3.5c-3.1,0.9-6.2,1.6-9.4,2c0,0-0.1,0.1,0,0.1c0,0,0,0,0,0
		c6.3-0.2,12.3-2.1,17.6-5.4C319.3,141,319.2,140.8,319.1,140.8z"/>
	<path class="st3" d="M322.6,145.9c-2.7,1.1-7.4,3-16.3,3.7c0,0,0,0,0,0.1c5.7,0.4,11.4-0.8,16.4-3.5
		C322.9,146,322.8,145.8,322.6,145.9z"/>
	<path class="st0" d="M316.8,132.9c0.9-1,0.4-1.5-2.1-1.1s-11.8,4.3-12.9,0.9s12.2-8.6,16.4-9.1c3.7-0.2,7.5-0.1,11.2,0.3
		C327.1,125.5,321.4,129.8,316.8,132.9z"/>
	<path class="st5" d="M369.1,72.3c6-12.7,11.6-9.4,12.1,3.2c0.2,8.7-0.2,17.5-1.2,26.2l-21.9-6.3C358.1,95.4,365.2,80.4,369.1,72.3z
		"/>
	<path class="st1" d="M374.5,64.9c1.2,0.7,2.3,1.8,3,3C376.3,67.1,375.3,66.1,374.5,64.9z M365.9,81c0,0.7,0.1,1.4,0.2,2.1
		c0.2-0.7,0.3-1.4,0.2-2.1c0-0.7-0.1-1.4-0.2-2.1C365.9,79.6,365.8,80.3,365.9,81z M377.2,83.5c-0.7,0-1.4,0.1-2.1,0.2
		c1.4,0.3,2.8,0.3,4.2,0C378.6,83.5,377.9,83.5,377.2,83.5L377.2,83.5z M363.9,93.7c0.5,0.5,1.1,0.9,1.7,1.3c-0.7-1.2-1.8-2.3-3-3
		C362.9,92.6,363.4,93.2,363.9,93.7z M379.4,95.2c0.5-0.5,1-1,1.3-1.7c-1.2,0.7-2.3,1.8-3,3C378.4,96.2,378.9,95.7,379.4,95.2z"/>
	<path class="st3" d="M367,76.2c-0.8,1.7-1.7,3.3-2.5,5c0.1-0.8,0.3-1.6,0.4-2.4 M364.8,78.8c-0.1,0.6-0.3,1.2-0.4,1.9
		c0,0.3-0.1,0.6-0.2,0.9c0,0.1,0,0.1,0,0.2c-0.7,1.3-1.3,2.6-2,3.9c-0.8,1.6-1.5,3.1-2.2,4.7s-1.4,3.5-2.2,5.1
		c0.7,0.3,1.4,0.5,2.1,0.6c0.2,0.1,0.3-0.1,0.1-0.1s-1.8-0.7-1.9-0.7c0.7-1.6,1.6-3.1,2.4-4.6s1.5-3.1,2.3-4.7
		c1.5-3.2,2.8-6.4,4.2-9.6c0-0.1-0.1-0.1-0.1-0.1L364.8,78.8z"/>
	<path class="st3" d="M382.1,83.8c-0.2,0.6-0.4,1.3-0.6,2c-0.1,0.3-0.1,0.6-0.2,0.8c0.1-2.3,0.2-4.6,0.2-6.8c0.1-3.4,0,0,0,0
		c-0.3,3.7-0.6,7.4-0.9,11.1c-0.3,3.6-0.5,7.1-0.5,10.7c-0.7-0.2-1.3-0.3-2-0.3c0.7,0.3,1.5,0.5,2.3,0.6c0.5-3.6,0.6-7.6,0.8-11.2
		c0-1,0.1-2,0.1-3.1c0.1-0.6,0.3-1.2,0.5-1.9s0.3-1.3,0.4-2C382.2,83.7,382.1,83.7,382.1,83.8z"/>
	<path class="st3" d="M379.1,98.4c-3.1-1.1-15.9-5.1-18.7-5.8c-0.2-0.1-0.3,0.1-0.1,0.1c6.1,2.3,12.4,4.2,18.7,5.8
		C379.1,98.5,379.2,98.4,379.1,98.4z"/>
	<path class="st0" d="M271.6,95c3,0.9,2.4-3.2,2.4-3.2s2.4,5.7,5.8,5.4s2.4-5.2,2.4-5.5c0.1,0.3,2.4,5.5,5.9,4.9s1.8-5.4,1.7-5.7
		c0.2,0.2,3,3.4,5.6,2.4c4.4-1.8-2.6-10.2-2.1-14l6.1,0.2c0.2,0,0.4,0,0.6-0.1l0.2-3.1c-2-0.8-3.9-1.7-5.7-2.8
		c-2.3-1.3-4.5-2.5-6.2-2.5c-1.5-0.1-2.9,0.8-3.5,2.3c0,0-1.8-2.8-4.6-2.4c-1.4,0.2-2.3,2.7-2.3,2.7c-0.9-1.3-2.5-1.9-4-1.7
		c-1.9,0.4-2.6,2.8-2.6,2.8s-2.5-1.4-4.3-0.4C263.4,76.1,265.1,93,271.6,95z"/>
	<path class="st0" d="M294,78.8l5.3,0.5c0.2,0,0.4,0,0.6-0.1c6.7-1.2,10.9-8.9,6-9.5c-3.7-0.4-7.7,4.5-11.5,3.5l0,0L294,78.8z"/>
	<path class="st3" d="M271.2,74.7c-0.9,5.9,0.1,11.9,2.8,17.3c0.1,0.2,0.4,0.1,0.3-0.1C272.5,86.3,271.5,80.5,271.2,74.7L271.2,74.7
		z"/>
	<path class="st3" d="M278,73.2c0-0.1-0.1-0.1-0.1,0c-0.9,6.5,0.6,13.2,4.1,18.7c0.1,0.2,0.4,0.2,0.3,0C280.1,88,278,78.7,278,73.2z
		"/>
	<path class="st3" d="M290.2,91.1c-3.5-5.4-4.8-11.4-5.3-17.8c0-0.1-0.1-0.1-0.1,0c-0.6,3.2,0.2,7.2,1,10.3c0.7,2.9,2.2,5.5,4.3,7.6
		C290.1,91.3,290.2,91.2,290.2,91.1z"/>
</g>
<g id="freepik--character-1--inject-10">
	<path class="st10" d="M205.7,319c-2.1,0.7-61.3,0.5-63.6-0.9c-0.9-0.5-1.3-9.2-1.6-19.6c-0.1-2.2-0.1-4.6-0.1-7
		c0-2.8-0.1-5.6-0.1-8.4c-0.1-12.4,0.1-23.3,0.1-23.3h38.6v23.3v8.4l-0.2,7c0,0,22.7,10.2,25,12.1S207.8,318.4,205.7,319z"/>
	<path class="st1" d="M205.7,319c-2.1,0.7-61.3,0.5-63.6-0.9c-0.9-0.5-1.3-9.2-1.6-19.6c-0.1-2.2-0.1-4.6-0.1-7
		c0-2.8-0.1-5.6-0.1-8.4h38.7v8.4l-0.2,7c0,0,22.7,10.2,25,12.1S207.8,318.4,205.7,319z"/>
	<path class="st2" d="M205.9,319.1c-1.4,0.5-26.6,0.5-45,0.2c-4.3-0.1-8.1-0.2-11.3-0.4c-4.3-0.2-7.2-0.4-7.7-0.7
		c-1.1-0.7-1.5-13.4-1.8-26.7h38.8l-0.2,7c0,0,22.8,10.3,25.1,12.1S208,318.4,205.9,319.1z"/>
	<path class="st3" d="M205,316.8c-10-0.3-50.3-0.4-60.2,0c-0.1,0-0.1,0,0,0.1c9.9,0.5,50.2,0.3,60.2,0
		C205.2,316.9,205.2,316.8,205,316.8z"/>
	<path class="st3" d="M180.1,296.3c-3.9-0.7-8.7-0.1-11.8,2.6c-0.1,0.1,0,0.3,0.2,0.2c3.8-1.2,7.6-2,11.6-2.4c0.1,0,0.3-0.1,0.3-0.2
		C180.4,296.4,180.3,296.3,180.1,296.3L180.1,296.3z"/>
	<path class="st3" d="M183,298c-3.9-0.8-8.7-0.2-11.8,2.6c-0.1,0.1,0,0.3,0.2,0.2c3.8-1.2,7.7-2,11.6-2.4c0.1,0,0.2-0.2,0.2-0.3
		C183.1,298.1,183.1,298,183,298z"/>
	<path class="st3" d="M185.8,299.7c-3.9-0.8-8.7-0.2-11.8,2.6c-0.1,0.1,0,0.3,0.2,0.2c3.8-1.2,7.6-2,11.6-2.4c0.1,0,0.2-0.1,0.2-0.3
		C186,299.8,185.9,299.7,185.8,299.7z"/>
	<path class="st3" d="M188.6,301.4c-3.9-0.8-8.7-0.2-11.8,2.6c-0.1,0.1,0,0.3,0.2,0.2c3.8-1.2,7.6-2,11.6-2.4c0.1,0,0.2-0.1,0.2-0.3
		C188.8,301.5,188.7,301.4,188.6,301.4z"/>
	<path class="st3" d="M187.4,287.2c-1.5-2.1-4.4-1.2-6.1,0.2c-2.8,2.4-4.9,5.5-6.1,9c0,0.1,0,0.1,0.1,0.1c0,0,0,0,0,0
		c0,0.3,0.3,0.6,0.6,0.5c3.2-1.2,6.9-2.1,9.7-4.2C187.3,291.5,188.9,289.2,187.4,287.2z M180.5,294.2c-1.6,0.6-3.2,1.2-4.8,1.9
		c1.1-1.8,2.4-3.5,3.7-5.2c0.6-0.8,1.3-1.5,2.1-2.2c1.2-1.1,5.8-3.3,5.1,1C186.3,292,182.4,293.4,180.5,294.2L180.5,294.2z"/>
	<path class="st3" d="M165.3,295.3c3.2,1.4,7,1.3,10.4,1.7c0.3,0,0.5-0.2,0.5-0.5c0,0,0-0.1,0-0.1c0,0,0.1-0.1,0-0.1c0,0,0,0,0,0
		c-2-3.1-4.8-5.5-8.1-7.2c-1.9-0.9-5-1.1-5.9,1.3S163.4,294.5,165.3,295.3z M163.5,292.5c-1.8-4,3.3-3,4.7-2.2
		c0.9,0.5,1.8,1.1,2.6,1.7c1.7,1.3,3.3,2.6,4.8,4.1c-1.7-0.3-3.4-0.4-5.1-0.6C168.6,295.1,164.5,294.7,163.5,292.5z"/>
	<path class="st6" d="M184.4,288.8l-47.8,0.9c0,0-6.5-42.3-10.8-68.6c-1.6-9.9-2.9-17.5-3.4-19.8c-1.2-5.5-25.5-92.6-25.5-92.6
		l34.8-0.1h11.9c0,0-0.8,14.6-0.3,16.1c6.2,21.1,18.9,58.5,22.8,71.5C172.1,216.1,184.4,288.8,184.4,288.8z"/>
	<path class="st3" d="M180.1,281.4c-6.9,0-31.2-0.3-40.3,0.5c0,0-0.1,0.1,0,0.1c0,0,0,0,0,0c3.1,0.5,33.5-0.2,40.4-0.5
		c0.1,0,0.1,0,0.1-0.1C180.2,281.5,180.2,281.4,180.1,281.4C180.1,281.4,180.1,281.4,180.1,281.4z"/>
	<path class="st3" d="M137.4,245.4c-1.7-10.9-3.5-21.9-5.5-32.7c-1-5.4-2.1-10.7-3.5-16s-3.2-10.6-5-15.8
		c-3.6-10.4-7-20.8-10.2-31.2s-6.2-21-9-31.6c-0.4-1.3-0.7-2.7-1.1-4c0-0.1-0.2-0.1-0.2,0c1.1,5.3,2.5,10.6,3.8,15.9
		c1.3,5.3,2.8,10.5,4.3,15.8c3,10.5,6.3,21,9.9,31.3c1.8,5.2,3.6,10.3,5.2,15.5s2.8,10.5,3.9,15.9c2.2,10.8,4.1,21.8,5.8,32.7
		s3.2,22,4.7,33c0.2,1.4,0.4,2.8,0.6,4.2c0.1,0.4,0.7,0.4,0.6,0C140.6,267.3,139,256.3,137.4,245.4z"/>
	<path class="st3" d="M131.7,108.5L125.8,221c-1.6-9.9-2.9-17.5-3.4-19.8c-1.2-5.5-25.5-92.6-25.5-92.6L131.7,108.5z"/>
	<path class="st10" d="M146.4,328.5c-2.1,0.7-61.3,0.5-63.6-0.9c-0.8-0.5-1.3-9.2-1.6-19.6c-0.1-2.3-0.1-4.6-0.2-7
		c0-2.8-0.1-5.6-0.1-8.4c-0.1-12.4,0.1-23.3,0.1-23.3h38.6V301l-0.2,7c0,0,22.7,10.2,25,12.1S148.5,327.8,146.4,328.5z"/>
	<path class="st1" d="M146.4,328.5c-2.1,0.7-61.3,0.5-63.6-0.9c-0.8-0.5-1.3-9.2-1.6-19.6c-0.1-2.3-0.1-4.6-0.2-7
		c0-2.8-0.1-5.6-0.1-8.4h38.7v8.4l-0.2,7c0,0,22.7,10.2,25,12.1S148.5,327.8,146.4,328.5z"/>
	<path class="st2" d="M146.6,328.6c-1.4,0.4-26.6,0.5-45,0.1c-4.2-0.1-8.1-0.2-11.3-0.3c-4.3-0.2-7.2-0.4-7.7-0.7
		c-1-0.7-1.5-13.3-1.8-26.7h38.8l-0.2,7c0,0,22.8,10.3,25.1,12.1S148.6,327.9,146.6,328.6z"/>
	<path class="st3" d="M145.7,326.2c-10-0.3-50.3-0.4-60.2,0c-0.1,0-0.1,0.1,0,0.1c9.9,0.5,50.2,0.3,60.2,0
		C145.9,326.3,145.9,326.2,145.7,326.2z"/>
	<path class="st3" d="M120.8,305.7c-3.9-0.8-8.7-0.2-11.8,2.6c-0.1,0.1,0,0.3,0.2,0.2c3.8-1.2,7.6-2,11.6-2.4c0.1,0,0.2-0.1,0.2-0.3
		C121,305.8,120.9,305.7,120.8,305.7z"/>
	<path class="st3" d="M123.7,307.4c-3.9-0.8-8.7-0.2-11.8,2.6c-0.1,0.1,0,0.3,0.2,0.2c3.8-1.2,7.6-2,11.6-2.4c0.1,0,0.2-0.2,0.2-0.3
		C123.8,307.5,123.8,307.4,123.7,307.4z"/>
	<path class="st3" d="M126.5,309.1c-3.9-0.7-8.7-0.1-11.8,2.6c-0.1,0.1,0,0.3,0.2,0.2c3.8-1.2,7.6-2,11.6-2.4c0.1,0,0.3-0.1,0.3-0.2
		C126.7,309.3,126.6,309.1,126.5,309.1z"/>
	<path class="st3" d="M129.3,310.9c-3.9-0.7-8.7-0.1-11.8,2.6c-0.1,0.1,0,0.3,0.2,0.2c3.8-1.2,7.6-2,11.6-2.4c0.1,0,0.3-0.1,0.3-0.2
		C129.6,311,129.5,310.9,129.3,310.9L129.3,310.9z"/>
	<path class="st3" d="M128.1,296.6c-1.5-2.1-4.4-1.2-6.1,0.2c-2.8,2.4-4.9,5.5-6.1,9c0,0.1,0,0.1,0.1,0.1c0,0,0,0,0,0
		c0,0.3,0.2,0.5,0.5,0.5c0.1,0,0.1,0,0.2,0c3.2-1.2,6.9-2.1,9.7-4.2C128,301,129.6,298.6,128.1,296.6z M121.2,303.6
		c-1.6,0.6-3.2,1.2-4.8,1.9c1.2-1.8,2.3-3.5,3.7-5.2c0.6-0.8,1.3-1.5,2.1-2.2c1.2-1.1,5.8-3.3,5.1,1
		C127,301.4,123.1,302.9,121.2,303.6L121.2,303.6z"/>
	<path class="st3" d="M106,304.8c3.2,1.4,7,1.3,10.4,1.7c0.3,0,0.5-0.2,0.5-0.5c0-0.1,0-0.1,0-0.2c0.1,0,0.1-0.1,0.1-0.1
		c0,0,0,0,0,0c-2-3.1-4.8-5.5-8.1-7.2c-1.9-0.9-5-1.1-5.9,1.3S104.1,303.9,106,304.8z M104.2,301.9c-1.8-4,3.3-3,4.7-2.2
		c0.9,0.5,1.8,1,2.6,1.6c1.7,1.3,3.3,2.7,4.8,4.1c-1.7-0.3-3.4-0.4-5.1-0.6C109.3,304.6,105.2,304.1,104.2,301.9L104.2,301.9z"/>
	<path class="st6" d="M125,297.6H78.2c0,0,10.2-145.1,8.5-153.2c-2.7-13.3-0.9-28.6,5.4-36h41.6c0,0,0.8,11.7-3.5,18.7
		c0,0-3.9,2.5-5.8,3.6L125,297.6z"/>
	<path class="st3" d="M120.6,290.1c-6.5-0.2-4.6-0.2-11.1-0.3c-3.2,0-24-0.3-27,0.1c-0.1,0-0.1,0.1,0,0.1c3,0.5,23.8,0.4,27,0.4
		c6.5,0,4.6-0.1,11.1-0.2C120.7,290.2,120.7,290.2,120.6,290.1C120.7,290.1,120.7,290.1,120.6,290.1z"/>
	<path class="st3" d="M132.9,125.2c-4.1,2-8,4.3-11.7,6.9c-0.1,0-0.1,0.1,0,0.2s0.1,0.1,0.2,0c4-2.2,8-4.3,11.8-6.7
		c0.1-0.1,0.2-0.2,0.1-0.4C133.2,125.2,133,125.2,132.9,125.2L132.9,125.2z"/>
	<path class="st3" d="M127.6,124.6c-0.2,0.8-0.4,1.6-0.6,2.5c-0.2,0.7-0.2,1.3-0.1,2c0,0.1,0.2,0.1,0.3,0c0.3-0.6,0.5-1.3,0.6-2
		c0.2-0.8,0.4-1.5,0.6-2.3C128.5,124.3,127.8,124.1,127.6,124.6z"/>
	<path class="st3" d="M127.2,120.6c0.1-0.7,0.2-1.4,0.3-2.1s0.3-1.4,0.4-2.2c0-0.1,0.2-0.1,0.2,0c-0.1,0.7-0.1,1.4-0.2,2.1
		s-0.1,1.4-0.2,2.1c-0.1,1.3-0.3,2.6-0.6,3.9c0.7-0.1,1.3-0.4,1.9-0.8c0.5-0.5,0.9-1.2,1-2c0.2-0.8,0.4-1.6,0.6-2.4
		c0.3-0.9,0.5-1.8,0.6-2.7c0-0.1,0.2-0.1,0.2,0c-0.2,1.9-0.5,3.8-1.1,5.6c-0.1,0.7-0.5,1.4-1.1,1.9c-0.7,0.4-1.5,0.6-2.3,0.7
		c-0.1,0-0.2,0-0.2-0.1C126.9,123.4,127,122,127.2,120.6z"/>
	<path class="st3" d="M93.5,143.9c-0.3-3.1-0.8-6.1-1.1-9.2c-0.6-6.1-0.3-12.3,1.1-18.3c0-0.1-0.2-0.2-0.2,0
		c-1.2,5.3-1.7,10.7-1.6,16.1c0.3,5.4,1.2,10.7,1.3,16.1s-0.3,11-0.7,16.4s-0.7,11-1.1,16.5c-1.4,22.1-2.7,44.2-4.1,66.3
		c-0.4,6.2-0.7,12.3-1.1,18.5c-0.4,6.3-0.8,12.5-1,18.8c0,0.5,0.8,0.5,0.8,0c0.9-11.1,1.5-22.2,2.2-33.3s1.3-22,2-33s1.3-22,2-33
		c0.3-5.5,0.7-11,1-16.5c0.3-5.5,0.7-11,0.8-16.4C93.9,149.9,93.8,146.9,93.5,143.9z"/>
	<path class="st3" d="M108.2,116c0,0-0.1-0.1-0.1,0c0,0,0,0,0,0c-0.2,0.7-0.4,1.5-0.4,2.2c-0.1,0.8-0.3,1.6-0.6,2.4
		c-0.5,1.6-1.3,3-2.5,4.2c-2.6,2.4-6.1,3.4-9.5,4.2c-0.1,0-0.1,0.1-0.1,0.1c0,0,0,0.1,0.1,0.1c2,0.1,4-0.2,5.9-0.9
		c1.7-0.5,3.2-1.4,4.6-2.6c1.3-1.2,2.1-2.7,2.5-4.4c0.2-0.9,0.3-1.8,0.3-2.7c0-0.4,0-0.9,0-1.3C108.4,116.9,108.3,116.4,108.2,116z"
		/>
	<path class="st10" d="M127.8,59.9c0.9,6.8,14.2,32.1,28.4,43.3c5.2,4.1,32.8,6.5,39.7,6c8.1-0.6,9.3-19.8,4.8-21.3
		c-5.6-1.9-31.8-4.2-36.9-6c-6.2-2.3-17.6-16.8-28.4-25.8C129.8,51.4,127.2,54.6,127.8,59.9z"/>
	<path class="st10" d="M195.9,109.2c2.6-0.1,14.2-1.4,17.4-2.5s12-4.9,11.4-7.4s-3.3-1.6-3.3-1.6s3.5-2.2,2.7-4.7s-5-0.9-5-0.9
		s3.4-2.5,2.4-4.9s-4.9-0.1-4.9-0.1s3.2-2.2,1.6-3.8c-2-2-7.5,2.7-11.1,3.7c-0.8,0.2-16.8,3.2-16.8,3.2L195.9,109.2z"/>
	<path class="st3" d="M217,86.8c-4.1,3.4-6.4,4.2-11.6,4.9c0,0-0.1,0.1-0.1,0.1c0,0,0,0,0.1,0.1c5.1-0.2,8.2-0.8,11.8-4.9
		C217.3,86.8,217.2,86.6,217,86.8z"/>
	<path class="st3" d="M219.4,91.8c-4.5,3.2-7.1,4.1-12.4,5.2c-0.1,0-0.1,0.1,0,0.1c5.4-0.7,8.5-1.3,12.6-5.1
		C219.7,91.8,219.6,91.6,219.4,91.8z"/>
	<path class="st3" d="M221.1,97.7c-4.6,2.8-7.4,3.9-12.7,4.3c-0.1,0-0.1,0-0.1,0.1c0,0.1,0,0.1,0.1,0.1c4.7,0.3,9.3-1.3,12.8-4.4
		C221.5,97.6,221.4,97.5,221.1,97.7z"/>
	<path class="st10" d="M186.6,87.9c2.7-1.7,5.5-3.3,8.4-4.6c2.8-1,14.7-1,14.9,1.6c0.2,3.3-6.7,4.6-10.1,4.9c0,0,0.4,7.7-4.3,9.7
		S186.6,87.9,186.6,87.9z"/>
	<path class="st3" d="M209.6,85.8c-2,3.1-6.6,3.1-9.9,3.6c-0.2,0-0.3,0.1-0.3,0.3c0,0,0,0.1,0,0.1c0,3.2-1,7.8-3.9,9.7
		c-0.1,0.1,0,0.2,0.1,0.1c3.3-1.6,4.6-6,4.5-9.6C203.5,89.7,208.1,89.5,209.6,85.8C209.6,85.8,209.6,85.8,209.6,85.8z"/>
	<path class="st11" d="M172.1,108.8c0,0-14.1-3.9-15.8-5.2c-1.9-1.5-3.7-3.1-5.4-4.7C138,86.2,130.2,69,128.1,63
		c-2.2-6.4-0.2-12.5,5.8-8.4c0.5,0.3,0.9,0.7,1.4,1.1c7,6.1,25.7,24.6,28,25.6s13.3,2.4,13.3,2.4L172.1,108.8z"/>
	<path class="st3" d="M150.9,98.9C138,86.2,130.2,69,128.1,63c-2.2-6.4-0.2-12.5,5.8-8.4L150.9,98.9z"/>
	<path class="st3" d="M172,83.2c-0.7,1.9-1.2,3.9-1.6,5.9c-0.5,2-1,4-1.4,6c-0.9,3.9-1.6,7.9-2,11.9c0,0,0,0.1,0.1,0.1
		c0,0,0.1,0,0.1-0.1c1.1-3.9,1.9-7.9,2.7-11.9c0.4-2,0.8-3.9,1.2-5.9s0.9-4,1.1-5.9C172.2,83.2,172.1,83.2,172,83.2
		C172,83.2,172,83.2,172,83.2z"/>
	<path class="st3" d="M141.5,73.7c0.3,1.5,0.6,3,0.8,4.6c0-0.1,0-0.1,0-0.2c0.1-0.9,0.1-1.7,0.3-2.6c0,0,0.1-0.1,0.1,0
		c0.1,0.9,0,1.7-0.1,2.6c-0.1,0.4-0.1,0.8-0.2,1.2c0.1,0.7,0.1,1.4,0.2,2.1c0.1,1.3,0.3,6.9,0.3,7.8c0,0.2-0.2,0.2-0.3,0
		c-0.2-1-0.7-6.7-0.8-8c-0.3-2.5-0.4-5-0.4-7.5C141.4,73.7,141.5,73.7,141.5,73.7z"/>
	<path class="st11" d="M143.1,115.3c-2,1.8-4.4,4.4-18.5,5.4c-0.9,0-1.8,0.1-2.7,0c-13.5-0.4-32.5-11-33.6-11.8
		c0,0,14.6-39.4,33.8-54.6c2.8-2.2,8.6-1.1,12.3,1.1c1.3,0.8,5.7,8.1,6.6,14.7S145.1,113.5,143.1,115.3z"/>
	<path class="st10" d="M132.2,65.3c-3.4,0.3-8.3-5.6-9.9-10c-0.1-0.3,0.8-3.2,1.7-6.7c0.5-2.1,1.1-4.6,1.4-6.8
		c0.1-0.5,1.5,0.6,1.5,0.6l2.8,1.1l9.2,3.8c-1.2,2.7-2.1,5.5-2.7,8.4c0,0.3,0,0.6,0,0.9c0,0,0,0.1,0,0.1
		C136.2,58.6,135.5,65,132.2,65.3z"/>
	<path class="st3" d="M136.2,56.6c0,0,0,0.1,0,0.1c-0.5,0-1-0.1-1.4-0.1c-9.4-1.6-8.7-13.8-8.7-13.8l3.7,0.7l9.2,3.8
		c-1.2,2.7-2.1,5.5-2.7,8.4C136.2,56,136.2,56.3,136.2,56.6z"/>
	<path class="st10" d="M124.5,27.2c-1.8,4.9,0.1,19.6,3.5,23c4.9,5,13.4,5.8,17.7-0.2c4.2-5.8,1.3-24.8-2.5-28
		C137.5,17.3,127.1,19.9,124.5,27.2z"/>
	<path class="st3" d="M137.8,37.3c0,0-0.1,0.1-0.1,0.1c0.1,1,0.2,2.1-0.7,2.6c0,0,0,0.1,0,0.1C138.1,39.7,138.1,38.2,137.8,37.3z"/>
	<path class="st3" d="M136.8,36.4c-1.6,0.1-1.3,3.3,0.2,3.2S138.1,36.3,136.8,36.4z"/>
	<path class="st3" d="M143.8,36.6C143.8,36.6,143.9,36.6,143.8,36.6c0.1,1.1,0.4,2.2,1.3,2.5l0,0C144,39.1,143.7,37.6,143.8,36.6z"
		/>
	<path class="st3" d="M144.6,35.5c1.6-0.2,2,2.9,0.5,3.2S143.3,35.7,144.6,35.5z"/>
	<path class="st3" d="M135.5,34c0.4-0.1,0.8-0.4,1.2-0.6c0.4-0.1,0.8-0.4,1.1-0.8c0.1-0.3,0.1-0.6-0.2-0.8c-0.5-0.3-1.2-0.3-1.7,0
		c-0.6,0.2-1,0.6-1.3,1.2c-0.1,0.4,0,0.8,0.4,0.9C135.2,34,135.4,34.1,135.5,34z"/>
	<path class="st3" d="M145.6,34.4c-0.4,0-0.9-0.1-1.3-0.2c-0.5,0-0.9-0.2-1.3-0.5c-0.2-0.2-0.2-0.6,0-0.8c0.4-0.4,1.1-0.6,1.6-0.5
		c0.6,0.1,1.2,0.4,1.6,0.8c0.2,0.3,0.2,0.8-0.1,1C146,34.4,145.8,34.4,145.6,34.4z"/>
	<path class="st3" d="M137.7,46.2c0.2,0.2,0.5,0.5,0.9,0.5c0.4,0,0.7-0.2,1-0.3 M139.6,46.4c-0.3,0.4-0.7,0.7-1.2,0.6
		c-0.4-0.1-0.8-0.4-0.9-0.8c0-0.1,0.1-0.1,0.1-0.1L139.6,46.4z"/>
	<path class="st3" d="M142.4,42c0.1,0.7,0.2,1.4,0.2,2.2c-1.4,0-2.7,0.2-4,0.6c-0.3,0.1-0.3-0.2,0-0.4c1-0.6,2.2-0.9,3.4-0.8
		c0-0.2-0.3-2.3-0.2-2.3c0.5,0.1,1.1,0.2,1.6,0.4c-0.3-3.1-1.1-6.1-1.4-9.2c0-0.1,0.1-0.1,0.2-0.1c1,3.2,1.6,6.5,1.9,9.8
		C144.2,42.6,142.7,42.1,142.4,42z"/>
	<path class="st3" d="M125.5,39.4c2.5-0.2,2.2-6.3,2.2-6.3s3.8-0.7,5.7-6c0,0,5,3,9.1,2.2c6.5-1.3,6.2-9.7,3.8-11.4
		c-3.5-2.4-9.6,1.2-9.6,1.2s-9.3-2.5-12,3.9c-2.5,0.2-4.4,2.3-4.4,4.8C120.1,32.3,123.7,39.5,125.5,39.4z"/>
	<path class="st3" d="M126.8,33.8c1.9-0.3,3.6-1.3,4.8-2.7c1.4-1.6,1.9-3.7,1.4-5.7c0,0,0.1-0.1,0.1-0.1c0,0,0,0,0.1,0.1
		c0.6,2.1,0.2,4.4-1,6.2c-1.2,1.7-3.3,2.7-5.4,2.5C126.8,33.9,126.7,33.8,126.8,33.8z"/>
	<path class="st3" d="M119.9,25c1.3-1.6,3.2-1.9,5.1-1.9c0.1,0,0.1,0.2,0,0.2c-2,0-3.8,1-4.8,2.7c-1,1.5-0.7,3.4-0.3,5.1
		c0.8,3.3,2.7,6.1,5.5,8 M125.5,39.2c-3.2-1.9-5.4-5.1-6.2-8.7c-0.4-1.8-0.5-3.9,0.6-5.4L125.5,39.2z"/>
	<path class="st3" d="M136.4,19.4c0.8-1.3,2.1-2.3,3.5-2.8c1.8-0.5,3.7-0.3,5.4,0.5c1.4,0.7,2.2,2.1,2.3,3.6c0,1.7-0.6,3.5-1.6,4.8
		c0,0-0.1,0-0.1,0c0.9-1.3,1.3-2.8,1.3-4.4c-0.1-1.5-1-2.9-2.4-3.5c-2.7-1.1-6.6-0.9-8.3,1.8C136.5,19.6,136.4,19.4,136.4,19.4z"/>
	<path class="st10" d="M127,39.1c0,0-3.1-4.8-5.3-3.7s0.1,8,2.6,9c1.3,0.6,2.8,0.1,3.4-1.2c0,0,0-0.1,0-0.1L127,39.1z"/>
	<path class="st3" d="M122.3,37.4C122.3,37.4,122.3,37.4,122.3,37.4c1.6,0.9,2.8,2.4,3.2,4.2c-0.4-0.7-1.2-0.9-1.9-0.6
		c-0.1,0-0.1,0.1-0.2,0.1c0,0,0,0.1,0,0.1c0.6-0.2,1.3,0.1,1.7,0.6c0.3,0.4,0.6,0.9,0.8,1.4c0.1,0.2,0.4,0.1,0.3-0.1l0,0
		C126.4,40.9,124.7,37.7,122.3,37.4z"/>
	<path class="st2" d="M32.7,347.3H0v-6h32.7c25.9,0,33.3-22.1,34.9-40.7c1.3-14.5,2.1-32.3,2.9-51c3.1-70.2,6.3-142.8,34.6-142.8
		h25.9v6H105c-22.5,0-26,79.2-28.6,137c-0.8,18.8-1.6,36.6-2.9,51.3C70.9,330.9,56.4,347.3,32.7,347.3z"/>
	<polygon class="st8" points="130.9,106.8 130.9,112.8 110.3,112.8 109,106.8 	"/>
	<rect x="220.7" y="71.6" class="st2" width="11" height="77"/>
	<rect x="178.8" y="75.2" class="st2" width="41.9" height="68.9"/>
	<polygon class="st8" points="220.7,75.2 220.7,144.1 210.3,144.1 205.6,75.2 	"/>
	<rect x="115.4" y="103.7" class="st2" width="31.1" height="12.3"/>
	<rect x="115.4" y="103.7" class="st2" width="31.1" height="12.3"/>
	<polygon class="st8" points="135.5,115.9 136.5,103.7 146.4,103.7 146.4,115.9 	"/>
	<path class="st2" d="M178.8,140h-26.2c-3.4,0-6.1-2.8-6.1-6.1V86.2c0-3.4,2.8-6.1,6.1-6.1h26.2l0,0V140L178.8,140z"/>
	<polygon class="st8" points="165,140 169.7,80.1 178.8,80.1 178.8,140 	"/>
	<g class="st9">
		<rect x="167.4" y="92.2" width="2.1" height="35.7"/>
		<rect x="161.6" y="92.2" width="2.1" height="35.7"/>
		<rect x="155.7" y="92.2" width="2.1" height="35.7"/>
	</g>
	<path class="st10" d="M113.4,68.1c-1,14.4-2.1,43.9,4.2,52.5c8.4,11.3,32,18.2,39,20.3c3,0.9,10.2-19,8.4-21.9s-26.2-9-28.1-10.7
		s-8-25.1-10.9-37.1C122.4,56.2,113.9,62.4,113.4,68.1z"/>
	<path class="st10" d="M183.1,126.7c3.9,0.9,9.7-1.1,9.9,1.9c0.2,2.6-4,3.6-4,3.6s5.1,0.4,4.4,3.3c-0.6,2.9-5.4,3-5.4,3
		s4.6,0.6,3.8,3.5s-5.3,3.2-5.3,3.2s1.2,0.9-0.3,2.6c-2.1,2.5-9.1,2.2-12.8,1.2s-16.2-7.5-18.1-8.5l6.4-23.4c0,0,7.3-1.2,11.1-1.3
		s16.4,2.9,15.8,6s-9.4,0.9-11.7,0.8s-2.7,0.4-1.7,1.3C175.9,124.4,181.4,126.2,183.1,126.7z"/>
	<path class="st3" d="M188.8,132.1c-5.9,1-8.7,0.3-14.1-2c-0.1-0.1-0.2,0.1-0.1,0.2c5.1,2.8,8.4,4,14.2,2.1
		C189.1,132.3,189.1,132.1,188.8,132.1z"/>
	<path class="st3" d="M188.2,138.3c-6.2,0.5-9.2-0.2-15.1-2.2c-0.1,0-0.1,0.1-0.1,0.1c5.6,2.5,8.9,3.6,15.1,2.4
		C188.5,138.6,188.5,138.3,188.2,138.3z"/>
	<path class="st3" d="M186.5,145.1c-6.1,0-9.4-0.6-14.8-3.2c-0.1,0-0.1,0-0.1,0c0,0,0,0.1,0,0.1c5.3,3.3,9.4,4,14.9,3.2
		C186.8,145.2,186.9,145.1,186.5,145.1z"/>
	<path class="st11" d="M138.2,136.2c0,0-19.1-9.6-22-16.9c-3.6-9.2-5.1-35.9-3.7-49.6s10.9-12,14,0.1c3,11.8,9.8,35.4,10.5,36.5
		c0.9,1.4,11.8,4.1,11.8,4.1"/>
	<path class="st3" d="M136.3,103.3c-0.3-1.1-0.9-3.7-1.2-4.8c-0.7-2.2-1.3-4.4-2-6.6s-1.4-4.4-2.1-6.6c-0.1-0.4-0.2-0.8-0.4-1.1
		c0.1-0.2-0.2-3.1-0.2-3.9c0-0.1-0.2-0.1-0.2,0c0,0.7,0,1.4-0.1,2.1c0,0.1,0,0.3,0,0.4c-0.5-1.4-0.9-2.9-1.4-4.3
		c0-0.1-0.2-0.1-0.2,0c0.9,3,1.3,4.9,2,7.3s1.3,4.7,2,7s1.4,4.7,2.2,7c0.4,1.4,0.9,2.8,1.4,4.1C136.6,104.9,136.7,104.5,136.3,103.3
		z"/>
	<path class="st3" d="M114.8,111.4c-0.4-2.5-0.8-5-1.1-7.4c-0.6-5-1-9.9-1.2-14.9c-0.1-2.9-0.3-5.7-0.5-8.6c0-0.1,0-0.1-0.1-0.1
		s-0.1,0-0.1,0.1l0,0c0,2.5-0.1,5.1,0,7.6c0,0.4,0,0.7,0,1.1l-0.1-0.5c-0.4-1.4-0.9-2.9-1.2-4.3c0,0-0.1-0.1-0.1,0c0,0,0,0.1,0,0.1
		c0.4,1.5,0.6,3,0.9,4.4c0.2,0.7,0.4,1.5,0.6,2.2l0.1,0.3c0.1,1.5,0.1,2.9,0.2,4.4c0.3,5,0.8,10,1.7,14.9c0.6,3.2,1.5,6.4,2.6,9.5
		c0,0,0.1,0.1,0.1,0c0,0,0,0,0,0C116,117.6,115.2,113.8,114.8,111.4z"/>
	<path class="st3" d="M145.3,110.5c-1,1.8-2,3.7-2.8,5.6c-0.9,1.9-1.8,3.8-2.6,5.7c-1.7,3.7-3.2,7.6-4.4,11.5c0,0.1,0,0.1,0.1,0.1
		c0,0,0.1,0,0.1,0c1.9-3.7,3.4-7.6,5.1-11.4c0.8-1.9,1.6-3.8,2.4-5.7S144.8,112.4,145.3,110.5C145.4,110.4,145.3,110.4,145.3,110.5z
		"/>
</g>
<g id="freepik--Lines--inject-10">
	<path class="st3" d="M250.2,58.7c-0.3,0-0.5-0.2-0.5-0.5V44.1c0-0.3,0.2-0.5,0.5-0.5s0.5,0.2,0.5,0.5v14.1
		C250.7,58.5,250.4,58.7,250.2,58.7L250.2,58.7z"/>
	<path class="st3" d="M224.7,65.4c-0.2,0-0.3-0.1-0.4-0.2l-7-12.2c-0.2-0.2-0.1-0.5,0.1-0.7s0.5-0.1,0.7,0.1c0,0,0,0.1,0.1,0.1
		l7,12.2c0.1,0.2,0.1,0.5-0.2,0.7c0,0,0,0,0,0C224.9,65.4,224.8,65.4,224.7,65.4z"/>
	<path class="st3" d="M217.4,165.8c-0.1,0-0.2,0-0.2-0.1c-0.2-0.1-0.3-0.5-0.1-0.7c0,0,0,0,0,0l7-12.2c0.1-0.2,0.4-0.3,0.7-0.2
		s0.3,0.4,0.2,0.7l-7,12.2C217.8,165.7,217.6,165.8,217.4,165.8z"/>
	<path class="st3" d="M249.8,174.5c-0.3,0-0.5-0.2-0.5-0.5v-14c0-0.3,0.2-0.5,0.5-0.5c0.3,0,0.5,0.2,0.5,0.5v14.1
		C250.3,174.3,250.1,174.6,249.8,174.5z"/>
	<path class="st3" d="M282.3,165.9c-0.2,0-0.3-0.1-0.4-0.2l-7-12.2c-0.1-0.2-0.1-0.5,0.2-0.7s0.5-0.1,0.7,0.2l7,12.2
		c0.1,0.2,0.1,0.5-0.2,0.7c0,0,0,0,0,0C282.5,165.9,282.4,165.9,282.3,165.9z"/>
	<path class="st3" d="M275.6,65.6c-0.1,0-0.2,0-0.2-0.1c-0.2-0.1-0.3-0.4-0.2-0.7c0,0,0,0,0,0l7-12.2c0.2-0.2,0.5-0.3,0.7-0.1
		c0.2,0.1,0.3,0.4,0.2,0.6l-7,12.2C275.9,65.5,275.8,65.6,275.6,65.6z"/>
</g>
</svg>
